<svg id="图层_1" data-name="图层 1" xmlns="http://www.w3.org/2000/svg" viewBox="0 0 214 30">
  <defs>
    <style>.cls-1{fill-rule:evenodd;}</style>
  </defs>
  <title>neb</title>
  <path class="cls-1"
        d="M108.92,2.5l-2.41,7.32h0l-9.2,4.68,7.1,2.48,4.55,9.5,2.41-7.32h0l9.2-4.68L113.46,12Zm-4.54,13.63-5-1.76.11-.06,6.69-3.4-1.72,5.23Zm4.68-11.51,3.6,7.53-7.3,3.71Zm-.25,19.75-3.35-7,5.07,1.76Zm9.59-9.69L111,18.45l-5.3-1.85.11-.06,7.39-3.76,5.3,1.85Z"/>
  <path class="cls-1"
        d="M155.41,14.56a2,2,0,0,0,.43-1.23V12.14a2.1,2.1,0,0,0-1.45-2l0,0a4.91,4.91,0,0,0-1.55-.25h-4.91v9.73h5.64a4.82,4.82,0,0,0,1.54-.25l.06,0a2.1,2.1,0,0,0,1.45-2v-.87A2.34,2.34,0,0,0,155.41,14.56Zm-6.68-3.84h4.07a4.07,4.07,0,0,1,1.29.21l0,0a1.27,1.27,0,0,1,.87,1.2v1.19a1.12,1.12,0,0,1-.61,1h-5.66Zm5.72,4.38a1.51,1.51,0,0,1,1.29,1.41v.84a1.26,1.26,0,0,1-.87,1.2l-.05,0a4,4,0,0,1-1.29.21h-4.8V15.09Z"/>
  <polygon class="cls-1"
           points="136.07 19.6 136.07 10.05 143.88 10.05 143.88 10.85 136.85 10.85 136.85 14.43 143.11 14.43 143.11 15.22 136.85 15.22 136.85 18.8 144.64 18.8 144.64 19.6 136.07 19.6"/>
  <polygon class="cls-1"
           points="124.91 11.49 124.91 19.42 124.13 19.42 124.13 9.48 131.97 17.99 131.97 10.07 132.76 10.07 132.76 20 124.91 11.49"/>
  <path class="cls-1"
        d="M163.67,19.62a4,4,0,0,1-3.95-3.83V9.87h.83v5.91a3.12,3.12,0,0,0,3.12,3h.59a3.12,3.12,0,0,0,3.12-3V9.87h.83v5.91a4,4,0,0,1-3.94,3.84Z"/>
  <polygon class="cls-1"
           points="171.82 19.42 171.82 10.07 172.61 10.07 172.61 18.64 179.69 18.64 179.69 19.42 171.82 19.42"/>
  <path class="cls-1"
        d="M190.28,19.53l-1.18-2.35h-5.57l-1.18,2.35h-.9l4.87-9.67,4.86,9.67Zm-1.58-3.15-2.38-4.74-2.38,4.74Z"/>
  <path class="cls-1"
        d="M193.64,19.41v-.82h5.46a3.89,3.89,0,0,0,1.22-.2,1.43,1.43,0,0,0,.84-1.26V16.6a1.42,1.42,0,0,0-.82-1.24,4,4,0,0,0-1.25-.2h-3a4.73,4.73,0,0,1-1.52-.25A2,2,0,0,1,193.24,13V12.2a2,2,0,0,1,1.38-1.88,4.68,4.68,0,0,1,1.51-.25h4.82v.82h-4.82a3.9,3.9,0,0,0-1.25.21,1.15,1.15,0,0,0-.81,1.1V13a1.15,1.15,0,0,0,.81,1.1,4,4,0,0,0,1.26.21h3a4.72,4.72,0,0,1,1.48.24l.09,0a2.24,2.24,0,0,1,1.32,2v.55a2.25,2.25,0,0,1-1.31,2l-.08,0a4.74,4.74,0,0,1-1.49.24Z"/>
  <path
    d="M14.81,13.22a2.61,2.61,0,0,0,.55-1.71,2.78,2.78,0,0,0-.25-1.18,2.41,2.41,0,0,0-.69-.88,2.67,2.67,0,0,0-1-.5,11.62,11.62,0,0,0-2.33-.14H9.18v10.3H10V14.24h.8a13.72,13.72,0,0,0,2.61-.18A2.39,2.39,0,0,0,14.81,13.22Zm-.88-.36a2.63,2.63,0,0,1-2,.55H10V9.66h1.88c1.7,0,2.56.62,2.56,1.85A1.92,1.92,0,0,1,13.93,12.86Z"/>
  <path
    d="M23.58,12.52a3.7,3.7,0,0,0-5.42,0A4,4,0,0,0,17,15.37a4,4,0,0,0,1.11,2.82,3.74,3.74,0,0,0,5.45,0,4.19,4.19,0,0,0,0-5.68ZM23,17.65a2.85,2.85,0,0,1-2.15.94,2.79,2.79,0,0,1-2.13-.93,3.23,3.23,0,0,1-.86-2.26,3.3,3.3,0,0,1,.89-2.3,2.81,2.81,0,0,1,4.24,0,3.26,3.26,0,0,1,.89,2.28A3.21,3.21,0,0,1,23,17.65Z"/>
  <polygon
    points="36.23 11.54 33.84 17.55 31.38 11.54 31.32 11.54 28.85 17.55 26.5 11.54 25.68 11.54 28.82 19.37 28.89 19.37 31.35 13.43 33.8 19.37 33.87 19.37 37.07 11.54 36.23 11.54"/>
  <path
    d="M44.68,16.8a3.12,3.12,0,0,1-2.89,1.82,2.72,2.72,0,0,1-2-.88,3.38,3.38,0,0,1-.88-2.31v-.09h6.76a4.2,4.2,0,0,0-1.13-2.91,3.64,3.64,0,0,0-2.69-1.1,3.51,3.51,0,0,0-2.68,1.18,4.26,4.26,0,0,0,0,5.68,3.57,3.57,0,0,0,2.74,1.18,3.78,3.78,0,0,0,3.48-2.21ZM39,14.55a2.83,2.83,0,0,1,2.85-2.42,3,3,0,0,1,1.87.64,2.83,2.83,0,0,1,1,1.79l0,.1h-5.8Z"/>
  <path
    d="M58.13,16.8a3.12,3.12,0,0,1-2.89,1.82,2.72,2.72,0,0,1-2-.88,3.38,3.38,0,0,1-.88-2.31v-.09h6.76A4.2,4.2,0,0,0,58,12.43a3.64,3.64,0,0,0-2.69-1.1,3.51,3.51,0,0,0-2.68,1.18,4.26,4.26,0,0,0,0,5.68,3.57,3.57,0,0,0,2.74,1.18,3.78,3.78,0,0,0,3.48-2.21Zm-5.7-2.25a2.83,2.83,0,0,1,2.85-2.42,3,3,0,0,1,1.87.64,2.83,2.83,0,0,1,1,1.79l0,.1H52.4Z"/>
  <path
    d="M61.83,18.18a3.61,3.61,0,0,0,2.73,1.18,3.68,3.68,0,0,0,2.88-1.56l.15-.18v1.48h.78V8.55h-.78v4.58l-.15-.21a3.44,3.44,0,0,0-2.92-1.58,3.59,3.59,0,0,0-2.68,1.18,4,4,0,0,0-1.12,2.83A4,4,0,0,0,61.83,18.18Zm.58-5.1a3,3,0,0,1,4.37,0,3.29,3.29,0,0,1,.87,2.3,3.16,3.16,0,0,1-.93,2.33,3,3,0,0,1-2.16.92,2.82,2.82,0,0,1-2.13-1,3.37,3.37,0,0,1,0-4.56Z"/>
  <path
    d="M80.89,12.51a3.54,3.54,0,0,0-2.68-1.18,3.67,3.67,0,0,0-2.95,1.5l-.15.18V8.55h-.78V19.11h.78V17.5l.15.21a3.5,3.5,0,0,0,2.92,1.66,3.58,3.58,0,0,0,2.68-1.18,4.18,4.18,0,0,0,0-5.68Zm-.6,5.1a2.92,2.92,0,0,1-4.34,0,3.35,3.35,0,0,1-.89-2.35A3.19,3.19,0,0,1,75.94,13a2.92,2.92,0,0,1,2.19-.91,2.82,2.82,0,0,1,2.18,1,3.33,3.33,0,0,1,.87,2.28A3.28,3.28,0,0,1,80.29,17.6Z"/>
  <polygon
    points="89.19 11.54 86.63 17.63 83.99 11.54 83.15 11.54 86.2 18.61 84.79 21.93 85.63 21.93 90.04 11.54 89.19 11.54"/>
  <rect x="47.38" y="11.49" width="0.83" height="7.72"/>
  <path
    d="M47.39,14.06h.84a1.89,1.89,0,0,1,1.85-1.72,1.8,1.8,0,0,1,.62.12v-.9a2.63,2.63,0,0,0-.62-.08A2.74,2.74,0,0,0,47.39,14.06Z"/>
</svg>
